<?xml version="1.0" encoding="utf-8"?>
<!-- Generator: Adobe Illustrator 24.3.0, SVG Export Plug-In . SVG Version: 6.00 Build 0)  -->
<svg version="1.1" id="Layer_1" xmlns="http://www.w3.org/2000/svg" xmlns:xlink="http://www.w3.org/1999/xlink" x="0px" y="0px"
	 viewBox="0 0 2000 2000" style="enable-background:new 0 0 2000 2000;" xml:space="preserve">
<style type="text/css">
	.st0{fill:#FFFFFF;}
</style>
<rect width="2000" height="2000"/>
<g>
	<path class="st0" d="M664.38,1006.19c-5.19-2.93-11.73-4.9-19.61-5.92c5.19-1.13,9.73-2.81,13.62-5.06
		c3.9-2.25,6.95-5.07,9.15-8.45c2.2-3.38,3.31-7.37,3.31-11.97c0-3.66-0.8-7.11-2.39-10.35c-1.6-3.24-4.11-6.03-7.53-8.38
		c-3.43-2.35-7.86-4.2-13.31-5.56c-5.45-1.36-12.07-2.04-19.86-2.04h-44.78h-15.07H552v105.62h21.41h9.58h55.21
		c5.54,0,10.63-0.61,15.28-1.83c4.65-1.22,8.66-2.98,12.04-5.28c3.38-2.3,6.03-5.16,7.96-8.59c1.92-3.43,2.89-7.34,2.89-11.76
		C676.35,1017.5,672.36,1010.69,664.38,1006.19z M630.3,975.2c3.29,0,5.7,0.63,7.25,1.9c1.55,1.27,2.32,2.98,2.32,5.14
		c0,2.35-0.84,4.11-2.53,5.28c-1.69,1.17-4.04,1.76-7.04,1.76h-16.05h-31.26V975.2H630.3z M642.62,1025.76
		c-1.83,1.03-4.06,1.55-6.69,1.55h-52.95v-14.08h39.29h12.68c3.57,0,6.2,0.66,7.89,1.97c1.69,1.32,2.54,3.1,2.54,5.35
		C645.37,1023,644.45,1024.73,642.62,1025.76z"/>
	<path class="st0" d="M728.74,948.45l-49.57,105.62h34.93l6.48-14.79h51.83l6.48,14.79h34.93l-49.57-105.62H728.74z M731.84,1013.93
		l14.65-33.1l14.65,33.1H731.84z"/>
	<polygon class="st0" points="822.26,1054.07 926.75,1054.07 926.75,1027.31 853.24,1027.31 853.24,1014.21 923.94,1014.21 
		923.94,988.87 853.24,988.87 853.24,975.2 926.75,975.2 926.75,948.45 822.26,948.45 	"/>
	<polygon class="st0" points="938.02,975.2 983.93,975.2 983.93,1054.07 1014.92,1054.07 1014.92,975.2 1060.83,975.2 
		1060.83,948.45 938.02,948.45 	"/>
	<polygon class="st0" points="1163.91,989.57 1103.07,989.57 1103.07,948.45 1072.09,948.45 1072.09,1054.07 1103.07,1054.07 
		1103.07,1016.33 1163.91,1016.33 1163.91,1054.07 1194.9,1054.07 1194.9,948.45 1163.91,948.45 	"/>
	<polygon class="st0" points="1408.85,1054.07 1448,1054.07 1399.99,991.72 1447.86,948.45 1405.47,948.45 1353.36,995.52 
		1353.36,948.45 1322.38,948.45 1322.38,1054.07 1353.36,1054.07 1353.36,1033.88 1376.83,1012.66 	"/>
	<path class="st0" d="M1296.52,960.94c-9.45-9.31-22.47-14.42-35.57-14.97c-0.7-0.03-1.4-0.05-2.1-0.05
		c-13.12-0.06-26.34,4.44-36.29,13.21c-4.63,4.09-8.51,9.08-11.12,14.73c-5.26,11.36-3.16,25.23-3.16,37.4c0,14.27,0,28.53,0,42.8
		h37.4v-64.98c0.8-5.93,6.63-10.39,13.34-10.3c6.56,0.09,12.14,4.51,12.92,10.3c0,21.66,0,43.32,0,64.98h36.91
		c0-18.26,0-36.51,0-54.77c0-7.84,0.73-15.68-2.17-23.11C1304.45,970.43,1300.9,965.25,1296.52,960.94z"/>
	<path class="st0" d="M1262.79,1010.64c-3.47,0-6.28,2.84-6.28,6.35s2.81,6.35,6.28,6.35c3.47,0,6.28-2.84,6.28-6.35
		S1266.26,1010.64,1262.79,1010.64z"/>
</g>
</svg>
